<svg width="32" height="32" viewBox="0 0 32 32" fill="none" xmlns="http://www.w3.org/2000/svg">
  <!-- 背景圆形 -->
  <circle cx="16" cy="16" r="15" fill="#4CAF50" stroke="#2E7D32" stroke-width="2"/>
  
  <!-- Git分支主线 -->
  <path 
    d="M8 20 Q12 16 16 20 Q20 16 24 20" 
    stroke="white" 
    stroke-width="2.5" 
    stroke-linecap="round" 
    fill="none"
  />
  
  <!-- Git节点 -->
  <circle cx="8" cy="20" r="2" fill="white"/>
  <circle cx="16" cy="20" r="2" fill="white"/>
  <circle cx="24" cy="20" r="2" fill="white"/>
  
  <!-- 分支线 -->
  <path 
    d="M12 12 Q14 14 16 20" 
    stroke="white" 
    stroke-width="2" 
    stroke-linecap="round" 
    fill="none"
  />
  <path 
    d="M20 12 Q18 14 16 20" 
    stroke="white" 
    stroke-width="2" 
    stroke-linecap="round" 
    fill="none"
  />
  
  <!-- 分支节点 -->
  <circle cx="12" cy="12" r="1.5" fill="white"/>
  <circle cx="20" cy="12" r="1.5" fill="white"/>
  
  <!-- Plus符号 -->
  <g transform="translate(16, 8)">
    <circle cx="0" cy="0" r="3" fill="white" opacity="0.9"/>
    <path 
      d="M-1.5 0 L1.5 0 M0 -1.5 L0 1.5" 
      stroke="#4CAF50" 
      stroke-width="1.5" 
      stroke-linecap="round"
    />
  </g>
  
  <!-- 装饰性光点 -->
  <circle cx="6" cy="8" r="1" fill="white" opacity="0.6"/>
  <circle cx="26" cy="8" r="1" fill="white" opacity="0.6"/>
  <circle cx="4" cy="24" r="0.8" fill="white" opacity="0.4"/>
  <circle cx="28" cy="24" r="0.8" fill="white" opacity="0.4"/>
</svg>